<?xml version='1.0' encoding='UTF-8' standalone='no'?>
<!-- Created with Fritzing (http://www.fritzing.org/) -->
<svg xmlns="http://www.w3.org/2000/svg" xmlns:svg="http://www.w3.org/2000/svg" viewBox="0 0 70.8661 70.8661" y="0in" height="0.984252in" version="1.2" width="0.984252in" baseProfile="tiny" x="0in" >
 <g transform="matrix(-1, 0, 0, 1, 70.8661, 0)">
  <g partID="854371280">
   <g id="board" >
    <ellipse fill-opacity="0.5" id="boardoutline" ry="35.1451" stroke-width="0.5" stroke="black" fill="none" cy="35.4331" rx="35.1451"  cx="35.4331"/>
   </g>
  </g>
  <g partID="57510">
   <g transform="translate(39.4811,64.1158)">
    <g transform="matrix(-3.33067e-16,-1,1,-3.33067e-16,0,0)">
     <g id="copper0" >
      <g id="copper1" >
       <g r="1.8" id="0" stroke="black" stroke-width="1.44" fill="none" cy="2.88"  cx="2.88"/>
       <g r="1.8" id="1" stroke="black" stroke-width="1.44" fill="none" cy="2.88"  cx="10.0933"/>
      </g>
     </g>
    </g>
   </g>
  </g>
  <g partID="57540">
   <g transform="translate(45.4309,53.759)">
    <g transform="matrix(-2.22045e-16,-1,1,-2.22045e-16,0,0)">
     <g id="copper0" >
      <g id="copper1" >
       <!-- <rect width="55" x="10" y="15.5" fill="none" height="55" stroke="rgb(255, 191, 0)" stroke-width="20" />  -->
       <g r="1.98" id="2" stroke="black" stroke-width="1.44" fill="none" cy="3.096"  cx="2.7"/>
       <g r="1.98" id="3" stroke="black" stroke-width="1.44" fill="none" cy="3.096"  cx="31.5"/>
      </g>
     </g>
    </g>
   </g>
  </g>
  <g partID="57720">
   <g transform="translate(10.6842,50.2752)">
    <g transform="matrix(0,-1,1,0,0,0)">
     <g id="copper0" >
      <g height="3.96" y="2.34" id="4" stroke="black" stroke-width="1.44" fill="none" width="3.96" x="2.34" />
      <g r="1.98" id="5" stroke="black" stroke-width="1.44" fill="none" cy="4.32"  cx="4.32"/>
      <g r="1.98" id="6" stroke="black" stroke-width="1.44" fill="none" cy="4.32"  cx="25.92"/>
      <g r="1.98" id="7" stroke="black" stroke-width="1.44" fill="none" cy="11.52"  cx="4.32"/>
      <g r="1.98" id="8" stroke="black" stroke-width="1.44" fill="none" cy="11.52"  cx="25.92"/>
      <g r="1.98" id="9" stroke="black" stroke-width="1.44" fill="none" cy="18.72"  cx="4.32"/>
      <g r="1.98" id="10" stroke="black" stroke-width="1.44" fill="none" cy="18.72"  cx="25.92"/>
      <g r="1.98" id="11" stroke="black" stroke-width="1.44" fill="none" cy="25.92"  cx="4.32"/>
      <g r="1.98" id="12" stroke="black" stroke-width="1.44" fill="none" cy="25.92"  cx="25.92"/>
     </g>
    </g>
   </g>
  </g>
  <g partID="854343780">
   <g transform="translate(65.3006,22.3682)">
    <g transform="matrix(0,1,-1,0,0,0)">
     <g id="copper0" gorn="0.3.0" >
      <g id="13" d="m9,3.6a1.8,1.8,0,0,1,-3.6,0,1.8,1.8,0,1,1,3.6,0z" gorn="0.3.0.0" stroke-width="1.44" stroke="black" fill="none"  style="stroke-linecap:round;stroke-linejoin:round;stroke-miterlimit:4;stroke-dasharray:none;stroke-dashoffset:0;display:inline" stroke-opacity="1"/>
      <g id="14" d="m16.2,3.6a1.8,1.8,0,0,1,-3.6,0,1.8,1.8,0,1,1,3.6,0z" gorn="0.3.0.1" stroke-width="1.44" stroke="black" fill="none"  style="stroke-linecap:round;stroke-linejoin:round;stroke-miterlimit:4;stroke-dasharray:none;stroke-dashoffset:0;display:inline" stroke-opacity="1"/>
      <g id="15" d="m23.4,3.6a1.8,1.8,0,0,1,-3.6,0,1.8,1.8,0,1,1,3.6,0z" gorn="0.3.0.2" stroke-width="1.44" stroke="black" fill="none"  style="stroke-linecap:round;stroke-linejoin:round;stroke-miterlimit:4;stroke-dasharray:none;stroke-dashoffset:0;display:inline" stroke-opacity="1"/>
      <g id="16" d="m30.6,3.6a1.8,1.8,0,0,1,-3.6,0,1.8,1.8,0,1,1,3.6,0z" gorn="0.3.0.3" stroke-width="1.44" stroke="black" fill="none"  style="stroke-linecap:round;stroke-linejoin:round;stroke-miterlimit:4;stroke-dasharray:none;stroke-dashoffset:0;display:inline" stroke-opacity="1"/>
      <g id="17" d="m37.8125,3.6a1.8,1.8,0,0,1,-3.6,0,1.8,1.8,0,1,1,3.6,0z" gorn="0.3.0.4" stroke-width="1.44" stroke="black" fill="none"  style="stroke-linecap:round;stroke-linejoin:round;stroke-miterlimit:4;stroke-dasharray:none;stroke-dashoffset:0;display:inline" stroke-opacity="1"/>
      <g id="18" d="m45.0125,3.6a1.8,1.8,0,0,1,-3.6,0,1.8,1.8,0,1,1,3.6,0z" gorn="0.3.0.5" stroke-width="1.44" stroke="black" fill="none"  style="stroke-linecap:round;stroke-linejoin:round;stroke-miterlimit:4;stroke-dasharray:none;stroke-dashoffset:0;display:inline" stroke-opacity="1"/>
     </g>
    </g>
   </g>
  </g>
  <g partID="854371080">
   <g transform="translate(9.83923,62.2218)">
    <g transform="matrix(0,-1,1,0,0,0)">
     <g id="copper0" flipped="1">
      <g transform="matrix(-1, 0, 0, 1, 53.64, 0)">
       <g>
        <g>
         <g gorn="0.0">
          <rect stroke-linecap="round" y="10.1262" height="11.232" id="19" stroke="none" stroke-width="0" gorn="0.0.0" width="11.232" fill="black" x="21.204" connectorname="GND"/>
          <rect stroke-linecap="round" y="11.2422" height="9.00001" id="20" stroke="none" stroke-width="0" gorn="0.0.1" width="9" fill="black" x="0" connectorname="PWR@1"/>
          <rect stroke-linecap="round" y="11.2422" height="9.00001" id="21" stroke="none" stroke-width="0" gorn="0.0.2" width="9" fill="black" x="44.64" connectorname="PWR@2"/>
          <g id="22" gorn="0.0.3"/>
         </g>
         <g id="23" gorn="0.0.3"/>
        </g>
       </g>
      </g>
     </g>
    </g>
   </g>
  </g>
 </g>
</svg>
